<?xml version="1.0" encoding="UTF-8" standalone="no"?>
<!-- Created with Inkscape (http://www.inkscape.org/) -->

<svg
   width="139.90234mm"
   height="53.893951mm"
   viewBox="0 0 139.90235 53.893952"
   version="1.1"
   id="svg1"
   xmlns:xlink="http://www.w3.org/1999/xlink"
   xmlns="http://www.w3.org/2000/svg"
   xmlns:svg="http://www.w3.org/2000/svg">
  <defs
     id="defs1">
    <linearGradient
       id="linearGradient36">
      <stop
         style="stop-color:#4845ee;stop-opacity:1;"
         offset="0"
         id="stop35" />
      <stop
         style="stop-color:#f6a0a0;stop-opacity:1;"
         offset="0.88149649"
         id="stop36" />
    </linearGradient>
    <linearGradient
       xlink:href="#linearGradient36"
       id="linearGradient2"
       gradientUnits="userSpaceOnUse"
       gradientTransform="translate(115.17234,138.09047)"
       x1="14.035836"
       y1="111.7384"
       x2="75.839302"
       y2="111.7384" />
  </defs>
  <g
     id="layer5"
     transform="translate(-38.388179,-224.82885)">
    <use
       x="0"
       y="0"
       xlink:href="#path31"
       id="use46"
       transform="translate(-5.4493999,188.26637)"
       style="display:none" />
    <text
       xml:space="preserve"
       style="font-size:38.1px;line-height:1.25;font-family:sans-serif;display:none;fill:#d3d3d3;fill-opacity:1;stroke-width:0.264583"
       x="37.626179"
       y="270.0741"
       id="text45"><tspan
         style="font-style:normal;font-variant:normal;font-weight:900;font-stretch:normal;font-size:38.1px;font-family:'Fira Sans';-inkscape-font-specification:'Fira Sans Heavy';fill:#d3d3d3;fill-opacity:1;stroke-width:0.264583"
         x="0"
         y="0"
         id="tspan45">Cuple</tspan></text>
    <path
       id="use2"
       style="fill:url(#linearGradient2);fill-opacity:1;stroke:none;stroke-width:2.8;stroke-dasharray:none;stroke-opacity:1"
       d="m 145.02478,224.82885 c -2.39213,0 -4.31808,1.92595 -4.31808,4.31808 v 5.29477 h -9.62784 c -1.03639,0 -1.87069,0.83481 -1.87069,1.8712 0,1.03638 0.8343,1.87069 1.87069,1.87069 h 9.62784 v 2.63601 h -9.62784 c -1.03639,0 -1.87069,0.83431 -1.87069,1.87069 0,1.03639 0.8343,1.87068 1.87069,1.87068 h 9.62784 v 25.94984 c 0,2.39214 1.92595,4.31808 4.31808,4.31808 h 4.48035 v -32.28898 c 0,-2.39213 1.92543,-4.31808 4.31756,-4.31808 h 5.15163 3.74137 2.63601 3.74189 9.19694 v -9.0749 c 0,-2.39214 -1.92595,-4.31808 -4.31809,-4.31808 h -4.87885 -3.74189 -2.63601 -3.74137 z" />
    <path
       style="font-weight:900;font-size:38.1px;line-height:1.25;font-family:'Fira Sans';-inkscape-font-specification:'Fira Sans Heavy';fill:#d3d3d3;stroke-width:0.264583"
       d="m 51.037378,242.7945 c -7.429499,0 -12.649199,5.1054 -12.649199,13.9446 0,9.1821 4.9911,14.097 12.763499,14.097 3.6957,0 6.7818,-1.7526 8.7249,-3.6957 l -3.429,-4.3434 c -1.6002,1.2573 -3.048,2.1336 -4.9149,2.1336 -3.1623,0 -4.9911,-2.5908 -4.9911,-8.1915 0,-5.6007 1.8288,-8.3058 4.8768,-8.3058 1.7526,0 3.1623,0.7239 4.5339,1.7526 l 3.6195,-4.2672 c -2.286,-1.9812 -5.0292,-3.1242 -8.5344,-3.1242 z m 28.155909,6.9342 h -7.543799 v 13.9446 c -0.6858,1.1811 -1.524,1.6764 -2.2098,1.6764 -0.7239,0 -1.2573,-0.381 -1.2573,-1.9812 v -13.6398 h -7.5438 v 14.6304 c 0,3.8862 1.7145,6.477 5.6769,6.477 2.5527,0 4.6101,-0.9906 6.0198,-2.9718 l 0.2667,2.2098 h 6.591299 z m 15.963866,-0.762 c -1.8288,0 -4.0005,0.6477 -5.7531,2.7432 l -0.3048,-1.9812 h -6.7056 v 28.9941 l 7.5438,-0.762 v -9.144 c 1.2192,1.3335 2.8194,2.0193 4.7244,2.0193 4.876799,0 8.115297,-4.6863 8.115297,-11.0109 0,-6.7056 -2.4765,-10.8585 -7.619997,-10.8585 z m -2.9718,16.4973 c -0.9144,0 -1.5621,-0.381 -2.2479,-1.4097 v -7.7724 c 0.762,-1.3716 1.7145,-1.905 2.667,-1.905 1.3716,0 2.4384,0.6477 2.4384,5.5626 0,4.1148 -1.1811,5.5245 -2.8575,5.5245 z m 18.973797,5.3721 c 1.7145,0 3.2004,-0.3048 4.191,-0.6858 l -1.3335,-5.3721 c -0.1905,0.0762 -0.4572,0.1524 -0.8001,0.1524 -0.6096,0 -0.9144,-0.3429 -0.9144,-1.0287 v -22.9362 l -7.5438,0.762 v 22.479 c 0,4.2291 2.286,6.6294 6.4008,6.6294 z m 24.38401,-11.2014 c 0,-6.8199 -3.9624,-10.668 -9.9822,-10.668 -6.7437,0 -10.1346,5.0292 -10.1346,10.9728 0,6.2865 3.5052,10.8966 10.9728,10.8966 3.5433,0 6.3627,-1.3716 8.382,-3.0099 l -3.048,-4.1148 c -1.7526,1.2192 -3.1623,1.7907 -4.6101,1.7907 -2.2098,0 -3.6576,-0.5334 -4.0767,-3.4671 h 12.3444 c 0.0762,-0.7239 0.1524,-1.7526 0.1524,-2.4003 z m -7.4295,-1.8669 h -5.1054 c 0.2667,-3.1242 1.1049,-4.0386 2.7051,-4.0386 1.9431,0 2.3622,1.7145 2.4003,3.7719 z"
       id="text2"
       aria-label="Cuple" />
  </g>
</svg>
