<?xml version="1.0" encoding="UTF-8" standalone="no"?>
<!-- Created with Inkscape (http://www.inkscape.org/) -->

<svg
   width="210.77318mm"
   height="293.04517mm"
   viewBox="0 0 210.77318 293.04517"
   version="1.1"
   id="svg1"
   inkscape:version="1.3.2 (091e20ef0f, 2023-11-25, custom)"
   sodipodi:docname="inkscape-project.svg"
   inkscape:export-filename="cuple.jpg"
   inkscape:export-xdpi="96"
   inkscape:export-ydpi="96"
   xmlns:inkscape="http://www.inkscape.org/namespaces/inkscape"
   xmlns:sodipodi="http://sodipodi.sourceforge.net/DTD/sodipodi-0.dtd"
   xmlns:xlink="http://www.w3.org/1999/xlink"
   xmlns="http://www.w3.org/2000/svg"
   xmlns:svg="http://www.w3.org/2000/svg">
  <sodipodi:namedview
     id="namedview1"
     pagecolor="#ffffff"
     bordercolor="#666666"
     borderopacity="1.0"
     inkscape:showpageshadow="2"
     inkscape:pageopacity="0.0"
     inkscape:pagecheckerboard="0"
     inkscape:deskcolor="#d1d1d1"
     inkscape:document-units="mm"
     inkscape:zoom="0.68437435"
     inkscape:cx="290.77653"
     inkscape:cy="551.5987"
     inkscape:window-width="3840"
     inkscape:window-height="2160"
     inkscape:window-x="0"
     inkscape:window-y="0"
     inkscape:window-maximized="1"
     inkscape:current-layer="layer4" />
  <defs
     id="defs1">
    <linearGradient
       id="linearGradient36"
       inkscape:collect="always">
      <stop
         style="stop-color:#4845ee;stop-opacity:1;"
         offset="0"
         id="stop35" />
      <stop
         style="stop-color:#f6a0a0;stop-opacity:1;"
         offset="0.88149649"
         id="stop36" />
    </linearGradient>
    <linearGradient
       id="linearGradient34"
       inkscape:collect="always">
      <stop
         style="stop-color:#a1a1a1;stop-opacity:1;"
         offset="0"
         id="stop33" />
      <stop
         style="stop-color:#fdfdfd;stop-opacity:1;"
         offset="1"
         id="stop34" />
    </linearGradient>
    <linearGradient
       id="linearGradient30"
       inkscape:collect="always">
      <stop
         style="stop-color:#1d1d1d;stop-opacity:1;"
         offset="0"
         id="stop29" />
      <stop
         style="stop-color:#434343;stop-opacity:1;"
         offset="1"
         id="stop30" />
    </linearGradient>
    <linearGradient
       id="linearGradient27"
       inkscape:collect="always">
      <stop
         style="stop-color:#08075b;stop-opacity:1;"
         offset="0"
         id="stop27" />
      <stop
         style="stop-color:#f6a0a0;stop-opacity:1;"
         offset="0.88149649"
         id="stop28" />
    </linearGradient>
    <linearGradient
       inkscape:collect="always"
       xlink:href="#linearGradient27"
       id="linearGradient28"
       x1="14.035836"
       y1="111.7384"
       x2="75.839302"
       y2="111.7384"
       gradientUnits="userSpaceOnUse"
       gradientTransform="translate(-2.2059881,-7.4621172)" />
    <linearGradient
       inkscape:collect="always"
       xlink:href="#linearGradient30"
       id="linearGradient29"
       x1="34.994064"
       y1="121.03255"
       x2="76.50058"
       y2="121.03255"
       gradientUnits="userSpaceOnUse"
       gradientTransform="translate(-2.8672651,-5.7416962)" />
    <linearGradient
       inkscape:collect="always"
       xlink:href="#linearGradient36"
       id="linearGradient32"
       gradientUnits="userSpaceOnUse"
       x1="14.035836"
       y1="111.7384"
       x2="75.839302"
       y2="111.7384"
       gradientTransform="translate(117.15033)" />
    <linearGradient
       inkscape:collect="always"
       xlink:href="#linearGradient34"
       id="linearGradient33"
       gradientUnits="userSpaceOnUse"
       x1="34.994064"
       y1="121.03255"
       x2="76.50058"
       y2="121.03255"
       gradientTransform="translate(116.48905,1.7204168)" />
    <linearGradient
       inkscape:collect="always"
       xlink:href="#linearGradient36"
       id="linearGradient2"
       gradientUnits="userSpaceOnUse"
       gradientTransform="translate(115.17234,138.09047)"
       x1="14.035836"
       y1="111.7384"
       x2="75.839302"
       y2="111.7384" />
    <linearGradient
       inkscape:collect="always"
       xlink:href="#linearGradient27"
       id="linearGradient3"
       gradientUnits="userSpaceOnUse"
       gradientTransform="translate(115.17233,54.235568)"
       x1="14.035836"
       y1="111.7384"
       x2="75.839302"
       y2="111.7384" />
  </defs>
  <g
     inkscape:label="bg"
     inkscape:groupmode="layer"
     id="layer1"
     transform="translate(0.3865855,-22.034218)">
    <rect
       style="fill:#f9f9f9;fill-opacity:1;stroke:none;stroke-width:1.17165;stroke-dasharray:none;stroke-opacity:1;paint-order:stroke fill markers"
       id="rect36-5"
       width="209.99998"
       height="206.99918"
       x="7.6293945e-06"
       y="22.034218"
       ry="0"
       inkscape:label="background-light" />
    <rect
       style="display:inline;fill:#333333;fill-opacity:1;stroke:#ffffff;stroke-width:0.499999;stroke-dasharray:none;stroke-opacity:1;paint-order:stroke fill markers"
       id="rect30"
       width="82.749214"
       height="85.311043"
       x="122.66252"
       y="42.814682"
       ry="11.327698"
       inkscape:label="background-dark-compact" />
    <rect
       style="display:inline;fill:#333333;fill-opacity:1;stroke:#ffffff;stroke-width:0.773171;stroke-dasharray:none;stroke-opacity:1;paint-order:stroke fill markers"
       id="rect30-1"
       width="210"
       height="85.659401"
       x="0"
       y="229.03339"
       ry="0"
       inkscape:label="background-dark" />
  </g>
  <g
     inkscape:groupmode="layer"
     id="layer2"
     inkscape:label="compact_light">
    <path
       id="path20"
       style="fill:url(#linearGradient28);fill-opacity:1;stroke:none;stroke-width:2.8;stroke-dasharray:none;stroke-opacity:1"
       d="m 27.646453,79.276258 c -2.39213,0 -4.318082,1.925953 -4.318082,4.318083 v 5.294767 h -9.627836 c -1.036389,0 -1.870687,0.834814 -1.870687,1.871203 0,1.036379 0.834298,1.870692 1.870687,1.870692 h 9.627836 v 2.63601 h -9.627836 c -1.036389,0 -1.870687,0.83431 -1.870687,1.87069 0,1.03639 0.834298,1.87068 1.870687,1.87068 h 9.627836 v 25.949837 c 0,2.39214 1.925952,4.31808 4.318082,4.31808 H 32.1268 V 96.987323 c 0,-2.39213 1.925436,-4.31808 4.317566,-4.31808 h 5.151624 3.741373 2.636015 3.741893 9.19693 v -9.074902 c 0,-2.392144 -1.92595,-4.318083 -4.31808,-4.318083 h -4.87885 -3.741893 -2.636015 -3.741373 z"
       sodipodi:nodetypes="sscsssccssscsscsscccccssccccs"
       transform="translate(12.905352,-42.713775)" />
    <path
       d="m 45.337363,96.987326 v 11.357434 c 0,1.03639 -0.8343,1.87069 -1.87068,1.87069 -1.03639,0 -1.87069,-0.8343 -1.87069,-1.87069 V 96.987326 h -5.15162 c -2.39215,0 -4.317573,1.925927 -4.317573,4.318074 v 32.28898 h 24.467321 c 2.39214,0 4.31808,-1.92593 4.31808,-4.31808 V 96.987326 h -9.19693 v 0 11.357434 c 0,1.03639 -0.83482,1.87069 -1.871208,1.87069 -1.03638,0 -1.87068,-0.8343 -1.87068,-1.87069 V 96.987326 Z"
       style="fill:url(#linearGradient29);fill-opacity:1;stroke:none;stroke-width:0.5;stroke-dasharray:none;stroke-opacity:1;paint-order:stroke fill markers"
       id="path23"
       sodipodi:nodetypes="cssscsscsscccssscc"
       transform="translate(12.905352,-42.713775)" />
  </g>
  <g
     inkscape:groupmode="layer"
     id="layer3"
     inkscape:label="compact_dark">
    <path
       id="path31"
       style="fill:url(#linearGradient32);fill-opacity:1;stroke:none;stroke-width:2.8;stroke-dasharray:none;stroke-opacity:1"
       d="m 147.00277,86.738375 c -2.39213,0 -4.31808,1.925953 -4.31808,4.318083 v 5.294767 h -9.62784 c -1.03639,0 -1.87069,0.834814 -1.87069,1.871203 0,1.036379 0.8343,1.870692 1.87069,1.870692 h 9.62784 v 2.63601 h -9.62784 c -1.03639,0 -1.87069,0.83431 -1.87069,1.87069 0,1.03639 0.8343,1.87068 1.87069,1.87068 h 9.62784 v 25.94984 c 0,2.39214 1.92595,4.31808 4.31808,4.31808 h 4.48035 v -32.28898 c 0,-2.39213 1.92543,-4.31808 4.31756,-4.31808 h 5.15163 3.74137 2.63601 3.74189 9.19694 v -9.074902 c 0,-2.392144 -1.92595,-4.318083 -4.31809,-4.318083 h -4.87885 -3.74189 -2.63601 -3.74137 z"
       sodipodi:nodetypes="sscsssccssscsscsscccccssccccs"
       transform="translate(3.4714058,-50.175896)" />
    <path
       d="m 164.69368,104.44944 v 11.35744 c 0,1.03639 -0.8343,1.87069 -1.87068,1.87069 -1.03639,0 -1.87069,-0.8343 -1.87069,-1.87069 v -11.35744 h -5.15162 c -2.39215,0 -4.31757,1.92593 -4.31757,4.31808 v 32.28898 h 24.46732 c 2.39214,0 4.31808,-1.92593 4.31808,-4.31808 v -32.28898 h -9.19693 v 0 11.35744 c 0,1.03639 -0.83482,1.87069 -1.87121,1.87069 -1.03638,0 -1.87068,-0.8343 -1.87068,-1.87069 v -11.35744 z"
       style="fill:url(#linearGradient33);fill-opacity:1;stroke:none;stroke-width:0.5;stroke-dasharray:none;stroke-opacity:1;paint-order:stroke fill markers"
       id="path32"
       sodipodi:nodetypes="cssscsscsscccssscc"
       transform="translate(3.4714058,-50.175896)" />
  </g>
  <g
     inkscape:groupmode="layer"
     id="layer4"
     inkscape:label="light">
    <use
       x="0"
       y="0"
       xlink:href="#path20"
       id="use44"
       transform="translate(104.47297,104.41146)"
       style="display:none" />
    <text
       xml:space="preserve"
       style="font-size:38.1px;line-height:1.25;font-family:sans-serif;display:none;fill:#333333;stroke-width:0.264583"
       x="37.626179"
       y="186.21919"
       id="text40"><tspan
         sodipodi:role="line"
         style="font-style:normal;font-variant:normal;font-weight:900;font-stretch:normal;font-size:38.1px;font-family:'Fira Sans';-inkscape-font-specification:'Fira Sans Heavy';fill:#333333;stroke-width:0.264583"
         x="37.626179"
         y="186.21919"
         id="tspan43">Cuple</tspan></text>
    <path
       id="use3"
       style="fill:url(#linearGradient3);fill-opacity:1;stroke:none;stroke-width:2.8;stroke-dasharray:none;stroke-opacity:1"
       d="m 145.02477,140.97394 c -2.39213,0 -4.31808,1.92596 -4.31808,4.31809 v 5.29476 h -9.62783 c -1.03639,0 -1.87069,0.83482 -1.87069,1.87121 0,1.03637 0.8343,1.87069 1.87069,1.87069 h 9.62783 v 2.63601 h -9.62783 c -1.03639,0 -1.87069,0.83431 -1.87069,1.87069 0,1.03639 0.8343,1.87068 1.87069,1.87068 h 9.62783 v 25.94983 c 0,2.39214 1.92595,4.31808 4.31808,4.31808 h 4.48035 v -32.28897 c 0,-2.39213 1.92544,-4.31808 4.31757,-4.31808 h 5.15162 3.74137 2.63602 3.74189 9.19693 v -9.0749 c 0,-2.39215 -1.92595,-4.31809 -4.31808,-4.31809 h -4.87885 -3.74189 -2.63602 -3.74137 z"
       sodipodi:nodetypes="sscsssccssscsscsscccccssccccs" />
    <path
       style="font-weight:900;font-size:38.1px;line-height:1.25;font-family:'Fira Sans';-inkscape-font-specification:'Fira Sans Heavy';fill:#333333;stroke-width:0.264583"
       d="m 51.037378,158.93959 c -7.429499,0 -12.649199,5.1054 -12.649199,13.9446 0,9.1821 4.9911,14.097 12.763499,14.097 3.6957,0 6.7818,-1.7526 8.7249,-3.6957 l -3.429,-4.3434 c -1.6002,1.2573 -3.048,2.1336 -4.9149,2.1336 -3.1623,0 -4.9911,-2.5908 -4.9911,-8.1915 0,-5.6007 1.8288,-8.3058 4.8768,-8.3058 1.7526,0 3.1623,0.7239 4.5339,1.7526 l 3.6195,-4.2672 c -2.286,-1.9812 -5.0292,-3.1242 -8.5344,-3.1242 z m 28.155909,6.9342 h -7.543799 v 13.9446 c -0.6858,1.1811 -1.524,1.6764 -2.2098,1.6764 -0.7239,0 -1.2573,-0.381 -1.2573,-1.9812 v -13.6398 h -7.5438 v 14.6304 c 0,3.8862 1.7145,6.477 5.6769,6.477 2.5527,0 4.6101,-0.9906 6.0198,-2.9718 l 0.2667,2.2098 h 6.591299 z m 15.963866,-0.762 c -1.8288,0 -4.0005,0.6477 -5.7531,2.7432 l -0.3048,-1.9812 h -6.7056 v 28.9941 l 7.5438,-0.762 v -9.144 c 1.2192,1.3335 2.8194,2.0193 4.7244,2.0193 4.876799,0 8.115297,-4.6863 8.115297,-11.0109 0,-6.7056 -2.4765,-10.8585 -7.619997,-10.8585 z m -2.9718,16.4973 c -0.9144,0 -1.5621,-0.381 -2.2479,-1.4097 v -7.7724 c 0.762,-1.3716 1.7145,-1.905 2.667,-1.905 1.3716,0 2.4384,0.6477 2.4384,5.5626 0,4.1148 -1.1811,5.5245 -2.8575,5.5245 z m 18.973797,5.3721 c 1.7145,0 3.2004,-0.3048 4.191,-0.6858 l -1.3335,-5.3721 c -0.1905,0.0762 -0.4572,0.1524 -0.8001,0.1524 -0.6096,0 -0.9144,-0.3429 -0.9144,-1.0287 v -22.9362 l -7.5438,0.762 v 22.479 c 0,4.2291 2.286,6.6294 6.4008,6.6294 z m 24.38401,-11.2014 c 0,-6.8199 -3.9624,-10.668 -9.9822,-10.668 -6.7437,0 -10.1346,5.0292 -10.1346,10.9728 0,6.2865 3.5052,10.8966 10.9728,10.8966 3.5433,0 6.3627,-1.3716 8.382,-3.0099 l -3.048,-4.1148 c -1.7526,1.2192 -3.1623,1.7907 -4.6101,1.7907 -2.2098,0 -3.6576,-0.5334 -4.0767,-3.4671 h 12.3444 c 0.0762,-0.7239 0.1524,-1.7526 0.1524,-2.4003 z m -7.4295,-1.8669 h -5.1054 c 0.2667,-3.1242 1.1049,-4.0386 2.7051,-4.0386 1.9431,0 2.3622,1.7145 2.4003,3.7719 z"
       id="text3"
       aria-label="Cuple" />
  </g>
  <g
     inkscape:groupmode="layer"
     id="layer5"
     inkscape:label="dark">
    <use
       x="0"
       y="0"
       xlink:href="#path31"
       id="use46"
       transform="translate(-5.4493999,188.26637)"
       style="display:none" />
    <text
       xml:space="preserve"
       style="font-size:38.1px;line-height:1.25;font-family:sans-serif;display:none;fill:#d3d3d3;fill-opacity:1;stroke-width:0.264583"
       x="37.626179"
       y="270.0741"
       id="text45"><tspan
         sodipodi:role="line"
         style="font-style:normal;font-variant:normal;font-weight:900;font-stretch:normal;font-size:38.1px;font-family:'Fira Sans';-inkscape-font-specification:'Fira Sans Heavy';fill:#d3d3d3;fill-opacity:1;stroke-width:0.264583"
         x="37.626179"
         y="270.0741"
         id="tspan45">Cuple</tspan></text>
    <path
       id="use2"
       style="fill:url(#linearGradient2);fill-opacity:1;stroke:none;stroke-width:2.8;stroke-dasharray:none;stroke-opacity:1"
       d="m 145.02478,224.82885 c -2.39213,0 -4.31808,1.92595 -4.31808,4.31808 v 5.29477 h -9.62784 c -1.03639,0 -1.87069,0.83481 -1.87069,1.8712 0,1.03638 0.8343,1.87069 1.87069,1.87069 h 9.62784 v 2.63601 h -9.62784 c -1.03639,0 -1.87069,0.83431 -1.87069,1.87069 0,1.03639 0.8343,1.87068 1.87069,1.87068 h 9.62784 v 25.94984 c 0,2.39214 1.92595,4.31808 4.31808,4.31808 h 4.48035 v -32.28898 c 0,-2.39213 1.92543,-4.31808 4.31756,-4.31808 h 5.15163 3.74137 2.63601 3.74189 9.19694 v -9.0749 c 0,-2.39214 -1.92595,-4.31808 -4.31809,-4.31808 h -4.87885 -3.74189 -2.63601 -3.74137 z"
       sodipodi:nodetypes="sscsssccssscsscsscccccssccccs" />
    <path
       style="font-weight:900;font-size:38.1px;line-height:1.25;font-family:'Fira Sans';-inkscape-font-specification:'Fira Sans Heavy';fill:#d3d3d3;stroke-width:0.264583"
       d="m 51.037378,242.7945 c -7.429499,0 -12.649199,5.1054 -12.649199,13.9446 0,9.1821 4.9911,14.097 12.763499,14.097 3.6957,0 6.7818,-1.7526 8.7249,-3.6957 l -3.429,-4.3434 c -1.6002,1.2573 -3.048,2.1336 -4.9149,2.1336 -3.1623,0 -4.9911,-2.5908 -4.9911,-8.1915 0,-5.6007 1.8288,-8.3058 4.8768,-8.3058 1.7526,0 3.1623,0.7239 4.5339,1.7526 l 3.6195,-4.2672 c -2.286,-1.9812 -5.0292,-3.1242 -8.5344,-3.1242 z m 28.155909,6.9342 h -7.543799 v 13.9446 c -0.6858,1.1811 -1.524,1.6764 -2.2098,1.6764 -0.7239,0 -1.2573,-0.381 -1.2573,-1.9812 v -13.6398 h -7.5438 v 14.6304 c 0,3.8862 1.7145,6.477 5.6769,6.477 2.5527,0 4.6101,-0.9906 6.0198,-2.9718 l 0.2667,2.2098 h 6.591299 z m 15.963866,-0.762 c -1.8288,0 -4.0005,0.6477 -5.7531,2.7432 l -0.3048,-1.9812 h -6.7056 v 28.9941 l 7.5438,-0.762 v -9.144 c 1.2192,1.3335 2.8194,2.0193 4.7244,2.0193 4.876799,0 8.115297,-4.6863 8.115297,-11.0109 0,-6.7056 -2.4765,-10.8585 -7.619997,-10.8585 z m -2.9718,16.4973 c -0.9144,0 -1.5621,-0.381 -2.2479,-1.4097 v -7.7724 c 0.762,-1.3716 1.7145,-1.905 2.667,-1.905 1.3716,0 2.4384,0.6477 2.4384,5.5626 0,4.1148 -1.1811,5.5245 -2.8575,5.5245 z m 18.973797,5.3721 c 1.7145,0 3.2004,-0.3048 4.191,-0.6858 l -1.3335,-5.3721 c -0.1905,0.0762 -0.4572,0.1524 -0.8001,0.1524 -0.6096,0 -0.9144,-0.3429 -0.9144,-1.0287 v -22.9362 l -7.5438,0.762 v 22.479 c 0,4.2291 2.286,6.6294 6.4008,6.6294 z m 24.38401,-11.2014 c 0,-6.8199 -3.9624,-10.668 -9.9822,-10.668 -6.7437,0 -10.1346,5.0292 -10.1346,10.9728 0,6.2865 3.5052,10.8966 10.9728,10.8966 3.5433,0 6.3627,-1.3716 8.382,-3.0099 l -3.048,-4.1148 c -1.7526,1.2192 -3.1623,1.7907 -4.6101,1.7907 -2.2098,0 -3.6576,-0.5334 -4.0767,-3.4671 h 12.3444 c 0.0762,-0.7239 0.1524,-1.7526 0.1524,-2.4003 z m -7.4295,-1.8669 h -5.1054 c 0.2667,-3.1242 1.1049,-4.0386 2.7051,-4.0386 1.9431,0 2.3622,1.7145 2.4003,3.7719 z"
       id="text2"
       aria-label="Cuple" />
  </g>
</svg>
